<svg xmlns="http://www.w3.org/2000/svg" width="25" height="25" viewBox="0 0 25 25"><g transform="translate(-12.5 -12.5)"><path d="M25,15.008A7.5,7.5,0,0,1,32.492,22.5v.858a7.443,7.443,0,0,1-2.195,5.3l-5.3,5.3-5.3-5.3a7.443,7.443,0,0,1-2.195-5.3V22.5A7.5,7.5,0,0,1,25,15.008M25,12.5h0a10,10,0,0,0-10,10v.858a10,10,0,0,0,2.929,7.071L25,37.5l7.071-7.071A10,10,0,0,0,35,23.358V22.5a10,10,0,0,0-10-10Z" fill="#fff"/><path d="M25,20a2.5,2.5,0,1,1-2.5,2.5A2.5,2.5,0,0,1,25,20m0-2.5a5,5,0,1,0,5,5,5,5,0,0,0-5-5Z" fill="#fff"/><path d="M18.965,35H13.75a1.25,1.25,0,0,0,0,2.5h7.715Z" fill="#fff"/><path d="M36.25,35H31.035l-2.5,2.5H36.25a1.25,1.25,0,0,0,0-2.5Z" fill="#fff"/></g></svg>