<svg xmlns="http://www.w3.org/2000/svg" width="60" height="30" viewBox="0 0 60 30"><path d="M142.886,129.223H147l4.056,7.828,1.607-7.828H157.1L154.13,143.7h-4.116l-4.056-7.866-1.607,7.866h-4.437Z" transform="translate(-139.914 -114.003)" fill="#fff"/><path d="M170.981,129.223h5.462a7.1,7.1,0,0,1,3.986.942,3.043,3.043,0,0,1,1.4,2.677,3.542,3.542,0,0,1-2.228,3.39,3.088,3.088,0,0,1,1.847,2.971,3.887,3.887,0,0,1-1.586,3.323,7.5,7.5,0,0,1-4.518,1.172H168.01Zm1.968,11.39H174.8q2.128,0,2.128-1.562,0-1.1-1.566-1.1h-1.867Zm1.165-5.639h1.124q2.128,0,2.128-1.561,0-1.1-1.566-1.1h-1.145Z" transform="translate(-150.983 -114.003)" fill="#fff"/><path d="M197.339,143.778a12.317,12.317,0,0,1-2.9-.353,9.489,9.489,0,0,1-2.54-.981l1.024-3.6a7.518,7.518,0,0,0,2.028.952,7.331,7.331,0,0,0,2.169.362,3.942,3.942,0,0,0,1.606-.248.805.805,0,0,0,.522-.762.771.771,0,0,0-.161-.515,1.691,1.691,0,0,0-.562-.381q-.4-.191-1.244-.495a6.393,6.393,0,0,1-2.811-1.705,3.852,3.852,0,0,1-.864-2.581,4.16,4.16,0,0,1,1.687-3.495,7.375,7.375,0,0,1,4.579-1.286,11.526,11.526,0,0,1,2.82.362,8.089,8.089,0,0,1,2.34.934l-1.1,3.5a9.925,9.925,0,0,0-2.018-.857,6.794,6.794,0,0,0-1.937-.324q-1.606,0-1.606.876a.689.689,0,0,0,.17.477,1.751,1.751,0,0,0,.552.371q.382.181,1.125.448a7.379,7.379,0,0,1,2.982,1.772,3.831,3.831,0,0,1,.873,2.628,4.2,4.2,0,0,1-1.777,3.6A8.271,8.271,0,0,1,197.339,143.778Z" transform="translate(-160.393 -113.778)" fill="#fff"/><path d="M213.135,102.749H185.351a3.275,3.275,0,0,0-3.357,3.185v5.421l8.995-5.9,15.787,13.916v13.374h6.359a3.275,3.275,0,0,0,3.357-3.185V105.934A3.275,3.275,0,0,0,213.135,102.749Z" transform="translate(-156.492 -102.749)" fill="#fff"/></svg>