<svg xmlns="http://www.w3.org/2000/svg" width="80" height="40" viewBox="0 0 80 40"><g transform="translate(-1380 -960)"><g transform="translate(0 3)"><g transform="translate(327 443)"><g transform="translate(1053 514)"><path d="M143.877,129.223h5.488l5.407,10.437,2.142-10.437h5.917l-3.963,19.3H153.38l-5.407-10.488-2.142,10.488h-5.917Z" transform="translate(-139.914 -108.93)"/><path d="M171.972,129.223h7.282a9.462,9.462,0,0,1,5.315,1.256,4.058,4.058,0,0,1,1.86,3.569,4.723,4.723,0,0,1-2.971,4.52,4.118,4.118,0,0,1,2.463,3.961,5.183,5.183,0,0,1-2.115,4.431,10,10,0,0,1-6.024,1.562H168.01Zm2.624,15.186h2.463q2.837,0,2.838-2.083,0-1.473-2.088-1.473h-2.49Zm1.553-7.518h1.5q2.837,0,2.838-2.082,0-1.473-2.088-1.472h-1.526Z" transform="translate(-145.307 -108.93)" fill="#176aba"/><path d="M199.152,148.806a16.423,16.423,0,0,1-3.869-.471,12.652,12.652,0,0,1-3.387-1.308l1.366-4.8a10.023,10.023,0,0,0,2.7,1.269,9.775,9.775,0,0,0,2.892.483,5.256,5.256,0,0,0,2.141-.33,1.074,1.074,0,0,0,.7-1.016,1.029,1.029,0,0,0-.215-.686,2.254,2.254,0,0,0-.75-.508q-.535-.254-1.659-.66a8.524,8.524,0,0,1-3.749-2.274,5.136,5.136,0,0,1-1.151-3.441,5.546,5.546,0,0,1,2.249-4.66,9.833,9.833,0,0,1,6.1-1.715,15.368,15.368,0,0,1,3.761.482,10.785,10.785,0,0,1,3.12,1.245l-1.473,4.673a13.234,13.234,0,0,0-2.691-1.143,9.059,9.059,0,0,0-2.583-.432q-2.142,0-2.141,1.168a.919.919,0,0,0,.227.635,2.334,2.334,0,0,0,.736.494q.509.241,1.5.6a9.839,9.839,0,0,1,3.976,2.362,5.108,5.108,0,0,1,1.164,3.5,5.607,5.607,0,0,1-2.369,4.8A11.028,11.028,0,0,1,199.152,148.806Z" transform="translate(-149.892 -108.806)"/><path d="M223.515,102.749H186.471A4.366,4.366,0,0,0,181.994,107v7.228l11.993-7.861,21.05,18.554v17.832h8.478a4.366,4.366,0,0,0,4.477-4.247V107A4.366,4.366,0,0,0,223.515,102.749Z" transform="translate(-147.991 -102.749)" fill="#176aba"/></g></g></g></g></svg>