<svg xmlns="http://www.w3.org/2000/svg" xmlns:xlink="http://www.w3.org/1999/xlink" width="40" height="40" viewBox="0 0 40 40"><defs><clipPath id="a"><rect width="40" height="40" fill="none"/></clipPath></defs><g clip-path="url(#a)"><circle cx="20" cy="20" r="20" transform="translate(0)" fill="#96cedd"/><g transform="translate(7.413 4.057)"><g transform="translate(14.657 14.906)"><path d="M232.091,222.853a3.812,3.812,0,0,0-.054-3.959,2.444,2.444,0,0,1,.051-2.541,3.613,3.613,0,0,0,0-3.88,2.408,2.408,0,0,1,0-2.625,3.613,3.613,0,0,0,0-3.88l-7.335.628a2.444,2.444,0,0,1,0,2.624,3.613,3.613,0,0,0-.011,3.862,2.316,2.316,0,0,1,.076,2.545,3.612,3.612,0,0,0-.026,4.036,2.258,2.258,0,0,1,0,2.512c-1.256,1.915-.309,3.135.14,4.369.031.085.072.163.107.244a19.866,19.866,0,0,0,6.726-2.275A2.125,2.125,0,0,1,232.091,222.853Z" transform="translate(-224.161 -205.969)" fill="#326996"/></g><g transform="translate(0 25.92)"><path d="M210.992,240.346A8.8,8.8,0,0,0,206.24,237l-7.832-2.224L190.576,237a8.8,8.8,0,0,0-4.746,3.338,19.987,19.987,0,0,0,25.162.009Z" transform="translate(-185.83 -234.775)" fill="#fbc366"/></g><g transform="translate(9.616 20.07)"><path d="M213.951,219.474a2.972,2.972,0,0,0-2.972,2.972v6.731a2.971,2.971,0,1,0,5.942,0v-6.731A2.971,2.971,0,0,0,213.951,219.474Z" transform="translate(-210.979 -219.474)" fill="#ff9a89"/></g><g transform="translate(8.452 23.042)"><path d="M216.2,236.616v-9.369h-8.271v9.369A4.13,4.13,0,0,0,209.7,240a19.477,19.477,0,0,0,4.74,0A4.129,4.129,0,0,0,216.2,236.616Z" transform="translate(-207.933 -227.247)" fill="#fbc366"/></g><g transform="translate(5.878 27.075)"><path d="M207.911,243.308a.405.405,0,0,1-.243-.081l-6.3-4.7a.407.407,0,0,1,.487-.653l6.059,4.517,6.059-4.517a.407.407,0,0,1,.487.653l-6.3,4.7A.405.405,0,0,1,207.911,243.308Z" transform="translate(-201.201 -237.796)" fill="#fefefe"/></g><g transform="translate(1.973 14.326)"><path d="M199.053,223.252a2.619,2.619,0,0,1,0-2.914,4.191,4.191,0,0,0-.03-4.682,2.5,2.5,0,0,1-.011-2.8,4.191,4.191,0,0,0,.086-4.63,2.836,2.836,0,0,1,0-3.044l-7.448-.728a4.192,4.192,0,0,0,0,4.5,2.84,2.84,0,0,1,0,3.046,4.192,4.192,0,0,0,0,4.5,2.836,2.836,0,0,1,.059,2.947,4.614,4.614,0,0,0-.471,3.729,19.879,19.879,0,0,0,8.5,2.806A3.66,3.66,0,0,0,199.053,223.252Z" transform="translate(-190.989 -204.452)" fill="#326996"/></g><g transform="translate(4.41 1.641)"><path d="M205.541,171.278c-4.4,0-8.084,3.468-8.177,7.046v6.852a2,2,0,0,0,2,2h12.35a2,2,0,0,0,2-2v-6.852C213.626,174.746,209.942,171.278,205.541,171.278Z" transform="translate(-197.364 -171.278)" fill="#ff9a89"/></g><g transform="translate(4.662 13.728)"><path d="M198.023,205.718a8,8,0,0,0,2.556,5.913l.387.353a7.312,7.312,0,0,0,9.963,0l.388-.353a8,8,0,0,0,2.556-5.913l-8.019-2.83Z" transform="translate(-198.023 -202.889)" fill="#ff9a89"/></g><g transform="translate(15.92 12.605)"><path d="M228.224,201.472a.76.76,0,1,1,.76-.761A.761.761,0,0,1,228.224,201.472Zm0-.814a.054.054,0,0,0-.054.054c0,.06.107.06.107,0A.053.053,0,0,0,228.224,200.658Z" transform="translate(-227.464 -199.952)" fill="#326996"/></g><g transform="translate(7.716 12.605)"><path d="M206.77,201.472a.76.76,0,1,1,.76-.761A.761.761,0,0,1,206.77,201.472Zm0-.814a.054.054,0,0,0-.054.054c0,.06.107.06.107,0A.054.054,0,0,0,206.77,200.658Z" transform="translate(-206.009 -199.952)" fill="#326996"/></g><g transform="translate(1.979)"><path d="M191.005,176.957v6.779l3.151-4.535a7.73,7.73,0,0,1,4.3-3.044,4.288,4.288,0,0,0,3.154-4.136v-5.035h-.638A9.97,9.97,0,0,0,191.005,176.957Z" transform="translate(-191.005 -166.987)" fill="#326996"/></g><g transform="translate(12.587)"><path d="M219.388,166.987h-.639v5.035a4.289,4.289,0,0,0,3.154,4.136,7.731,7.731,0,0,1,4.3,3.044l3.151,4.535v-6.779A9.97,9.97,0,0,0,219.388,166.987Z" transform="translate(-218.749 -166.987)" fill="#326996"/></g><g transform="translate(1.963 12.284)"><path d="M191.787,199.793a2.719,2.719,0,0,0,.007,3.906l.67.67a1.539,1.539,0,0,0,2.177,0l.668-.668a2.721,2.721,0,0,0,.007-3.909A2.63,2.63,0,0,0,191.787,199.793Z" transform="translate(-190.964 -199.113)" fill="#ff9a89"/></g><g transform="translate(18.037 12.284)"><path d="M233.825,199.792a2.721,2.721,0,0,0,.007,3.909l.668.668a1.539,1.539,0,0,0,2.177,0l.67-.67a2.719,2.719,0,0,0,.007-3.906A2.63,2.63,0,0,0,233.825,199.792Z" transform="translate(-233 -199.113)" fill="#ff9a89"/></g><g transform="translate(9.362 19.124)"><path d="M213.53,219.4a3.714,3.714,0,0,1-3.157-1.778.407.407,0,1,1,.7-.422,2.877,2.877,0,0,0,4.346.683.407.407,0,1,1,.533.614A3.69,3.69,0,0,1,213.53,219.4Z" transform="translate(-210.314 -217.002)" fill="#326996"/></g><g transform="translate(12.552 13.919)"><path d="M219.8,207.476a.4.4,0,0,1-.307-.14,3.418,3.418,0,0,1-.84-2.243v-1.3a.407.407,0,0,1,.814,0v1.3a2.6,2.6,0,0,0,.64,1.708.407.407,0,0,1-.307.674Z" transform="translate(-218.656 -203.388)" fill="#326996"/></g><g transform="translate(12.18 33.108)"><path d="M218.092,255.488a.407.407,0,0,1-.407-.407v-1.1a.407.407,0,1,1,.814,0v1.1A.407.407,0,0,1,218.092,255.488Z" transform="translate(-217.685 -253.572)" fill="#fefefe"/></g></g></g></svg>