<svg xmlns="http://www.w3.org/2000/svg" xmlns:xlink="http://www.w3.org/1999/xlink" width="40" height="40" viewBox="0 0 40 40"><defs><clipPath id="a"><rect width="40" height="40" fill="none"/></clipPath></defs><g clip-path="url(#a)"><g transform="translate(0 0)"><circle cx="20" cy="20" r="20" fill="#326996"/></g><g transform="translate(8.663 5.154)"><path d="M77.54,170.517l-.018,0a32.744,32.744,0,0,0-13.06,0,5.994,5.994,0,0,0-4.8,5.873h0a5.709,5.709,0,0,0,5.709,5.709H76.63a5.709,5.709,0,0,0,5.709-5.709h0A5.992,5.992,0,0,0,77.54,170.517Z" transform="translate(-59.665 -169.856)" fill="#fbc366"/></g><g transform="translate(8.541 32.283)"><path d="M80.442,243.788,70.8,240.807l-9.646,2.981a4.182,4.182,0,0,0-1.8,1.123,19.979,19.979,0,0,0,22.907.008A4.181,4.181,0,0,0,80.442,243.788Z" transform="translate(-59.346 -240.807)" fill="#ddeaf2"/></g><g transform="translate(17.019 25.77)"><path d="M84.78,223.786a2.972,2.972,0,0,0-3.261,2.958v4.907h0l2.98,2.876,2.961-2.877v-4.782A3.055,3.055,0,0,0,84.78,223.786Z" transform="translate(-81.519 -223.772)" fill="#ff9a89"/></g><g transform="translate(11.055 6.585)"><path d="M74.866,173.6c-4.813,0-8.843,3.794-8.944,7.707V190.3H83.811V181.3C83.71,177.392,79.68,173.6,74.866,173.6Z" transform="translate(-65.922 -173.598)" fill="#ff9a89"/></g><g transform="translate(10.755 5.628)"><path d="M78.567,171.1H70.2a4.96,4.96,0,0,0-4.96,4.9l-.1,8.514a1.33,1.33,0,0,0,1.315-1.133l.966-6.465a12.586,12.586,0,0,0,7.958,4.815l.309-3.926a5.38,5.38,0,0,0,4.721,2.324l.938-3.2h0l1.134,7.588h1.146l-.1-8.514A4.96,4.96,0,0,0,78.567,171.1Z" transform="translate(-65.137 -171.097)" fill="#fbc366"/></g><g transform="translate(10.968 19.685)"><path d="M65.693,211.082a9.115,9.115,0,0,0,2.913,6.739l.442.4a8.332,8.332,0,0,0,11.354,0l.442-.4a9.116,9.116,0,0,0,2.913-6.738l-9.139-3.225Z" transform="translate(-65.693 -207.858)" fill="#ff9a89"/></g><g transform="translate(16.072 25.349)"><path d="M82.961,226.591a3.917,3.917,0,0,0,3.916-3.919H79.041A3.92,3.92,0,0,0,82.961,226.591Z" transform="translate(-79.041 -222.672)" fill="#fefefe"/></g><g transform="translate(27.792 19.027)"><path d="M111.1,206.137h-1.406v5.2H111.1a1.67,1.67,0,0,0,1.67-1.67v-1.855A1.67,1.67,0,0,0,111.1,206.137Z" transform="translate(-109.694 -206.137)" fill="#ff9a89"/></g><g transform="translate(9.13 19.027)"><path d="M60.888,207.807v1.855a1.67,1.67,0,0,0,1.67,1.67h1.406v-5.2H62.558A1.67,1.67,0,0,0,60.888,207.807Z" transform="translate(-60.888 -206.137)" fill="#ff9a89"/></g><g transform="translate(18.359 36.526)"><rect width="2.32" height="2.32" transform="translate(0 1.64) rotate(-45.001)" fill="#326996"/></g><g transform="translate(19.28 38.651)"><path d="M87.548,257.459l-.115,1.331c.239.008.478.018.72.018s.48-.01.719-.018l-.115-1.331Z" transform="translate(-87.433 -257.459)" fill="#326996"/></g><g transform="translate(14.957 20.146)"><g transform="translate(0 0)"><path d="M77.607,210.1a.406.406,0,0,1-.281-.113.37.37,0,0,0-.512,0,.407.407,0,1,1-.562-.588,1.183,1.183,0,0,1,1.636,0,.407.407,0,0,1-.281.7Z" transform="translate(-76.127 -209.066)" fill="#326996"/></g><g transform="translate(8.178)"><path d="M97.921,210.1a.407.407,0,0,1-.281-.7,1.183,1.183,0,0,1,1.636,0,.407.407,0,0,1-.562.589.371.371,0,0,0-.512,0A.406.406,0,0,1,97.921,210.1Z" transform="translate(-97.514 -209.066)" fill="#326996"/></g></g><g transform="translate(23.825 3.484)"><path d="M100.452,170.4a.406.406,0,0,1-.283-.114,2.79,2.79,0,0,1,3.872-4.017.407.407,0,0,1-.565.586,1.976,1.976,0,0,0-2.742,2.845.407.407,0,0,1-.282.7Z" transform="translate(-99.317 -165.49)" fill="#fbc366"/></g><g transform="translate(23.131 1.442)"><path d="M97.912,166.229a.407.407,0,0,1-.4-.463l.731-5.266a.407.407,0,0,1,.806.112l-.731,5.266A.407.407,0,0,1,97.912,166.229Z" transform="translate(-97.504 -160.149)" fill="#fbc366"/></g></g></svg>