<svg xmlns="http://www.w3.org/2000/svg" xmlns:xlink="http://www.w3.org/1999/xlink" width="40" height="40" viewBox="0 0 40 40"><defs><clipPath id="a"><rect width="40" height="40" fill="none"/></clipPath></defs><g clip-path="url(#a)"><g transform="translate(0)"><circle cx="16.604" cy="16.604" r="16.604" transform="translate(0 7.696) rotate(-13.399)" fill="#fbc366"/></g><g transform="translate(8.837 5.264)"><g transform="translate(0.417 5.04)"><circle cx="3.394" cy="3.394" r="3.394" fill="#326996"/></g><g transform="translate(1.495 9.98)"><circle cx="2.525" cy="2.525" r="2.525" transform="translate(0 1.164) rotate(-13.329)" fill="#326996"/></g><g transform="translate(13.662 9.136)"><circle cx="3.052" cy="3.052" r="3.052" transform="matrix(0.945, -0.327, 0.327, 0.945, 0, 1.997)" fill="#326996"/></g><g transform="translate(15.537 5.04)"><path d="M494.139,320.365a3.052,3.052,0,1,0,3.343,2.731A3.052,3.052,0,0,0,494.139,320.365Z" transform="translate(-491.393 -320.35)" fill="#326996"/></g><g transform="translate(4.034 0.338)"><path d="M463.313,305.536h-2.058a6.1,6.1,0,0,0-6.1,6.1v4.424a6.372,6.372,0,0,0,.755,3.015,2.8,2.8,0,0,0-.755,1.907v2.256a6.4,6.4,0,0,0,6.4,6.4h1.449a6.4,6.4,0,0,0,6.4-6.4v-2.256a2.8,2.8,0,0,0-.755-1.907,6.376,6.376,0,0,0,.755-3.015v-4.424A6.1,6.1,0,0,0,463.313,305.536Z" transform="translate(-455.155 -305.536)" fill="#ff9a89"/></g><g transform="translate(0 23.517)"><path d="M464.774,382.064a5.392,5.392,0,0,0-3.517-2.661,34.831,34.831,0,0,0-15.292,0,5.393,5.393,0,0,0-3.517,2.66,16.6,16.6,0,0,0,22.326,0Z" transform="translate(-442.448 -378.552)" fill="#96cedd"/></g><g transform="translate(6.735 23.517)"><path d="M463.665,378.84l4.427,3.95,4.427-3.95a34.369,34.369,0,0,0-8.855,0Z" transform="translate(-463.665 -378.552)" fill="#fefefe"/></g><g transform="translate(2.942 10.914)"><path d="M467.064,344.57a1.692,1.692,0,0,1-3.385,0,1.669,1.669,0,0,0-1.669-1.669h-4.148a1.669,1.669,0,0,0-1.669,1.669,1.692,1.692,0,0,1-1.693,1.692h0a1.692,1.692,0,0,1-1.692-1.692v-5.718h-1.092v4.8a11.187,11.187,0,0,0,3.277,7.91,6.992,6.992,0,0,0,9.887,0h0a11.187,11.187,0,0,0,3.277-7.911v-4.8h-1.092Z" transform="translate(-451.715 -338.852)" fill="#326996"/></g><g transform="translate(5.222 8.965)"><path d="M461.5,337.924a2.606,2.606,0,1,1,2.606-2.606A2.609,2.609,0,0,1,461.5,337.924Zm0-4.535a1.93,1.93,0,1,0,1.93,1.93A1.932,1.932,0,0,0,461.5,333.389Z" transform="translate(-458.899 -332.713)" fill="#fefefe"/><g transform="translate(6.67)"><path d="M482.516,337.924a2.606,2.606,0,1,1,2.606-2.606A2.609,2.609,0,0,1,482.516,337.924Zm0-4.535a1.93,1.93,0,1,0,1.93,1.93A1.932,1.932,0,0,0,482.516,333.389Z" transform="translate(-479.91 -332.713)" fill="#fefefe"/></g><g transform="translate(4.536 1.235)"><path d="M475.66,338.347a.338.338,0,0,1-.338-.338.729.729,0,1,0-1.458,0,.338.338,0,1,1-.676,0,1.4,1.4,0,1,1,2.81,0A.338.338,0,0,1,475.66,338.347Z" transform="translate(-473.188 -336.604)" fill="#fefefe"/></g></g><g transform="translate(7.398 11.054)"><g transform="translate(6.598)"><path d="M487,340.227a.466.466,0,1,1,.467-.466A.467.467,0,0,1,487,340.227Zm0-.676a.209.209,0,1,0,.21.21A.209.209,0,0,0,487,339.551Z" transform="translate(-486.535 -339.294)" fill="#326996"/></g><path d="M466.219,340.227a.466.466,0,1,1,.466-.466A.467.467,0,0,1,466.219,340.227Zm0-.676a.209.209,0,1,0,.209.21A.209.209,0,0,0,466.219,339.551Z" transform="translate(-465.752 -339.294)" fill="#326996"/></g><g transform="translate(16.428 9.565)"><path d="M494.535,337.067a.338.338,0,0,1-.3-.483l.461-.968a1.784,1.784,0,0,1,1.6-1.012.338.338,0,1,1,0,.676,1.106,1.106,0,0,0-.993.627l-.461.968A.338.338,0,0,1,494.535,337.067Z" transform="translate(-494.197 -334.604)" fill="#fefefe"/></g><g transform="translate(3.463 9.565)"><path d="M455.455,337.067a.338.338,0,0,1-.305-.192l-.461-.968a1.106,1.106,0,0,0-.993-.627.338.338,0,1,1,0-.676,1.784,1.784,0,0,1,1.6,1.012l.461.968a.338.338,0,0,1-.3.483Z" transform="translate(-453.357 -334.604)" fill="#fefefe"/></g><g transform="translate(8.773 16.713)"><path d="M473.511,358.814h-2.074a1.355,1.355,0,0,1-1.353-1.353.341.341,0,1,1,.681,0,.673.673,0,0,0,.672.672h2.074a.672.672,0,0,0,.671-.672.341.341,0,0,1,.682,0A1.355,1.355,0,0,1,473.511,358.814Z" transform="translate(-470.084 -357.12)" fill="#ff9a89"/></g><g transform="translate(7.087 1.362)"><path d="M472.566,310.983a.339.339,0,0,1-.239-.1,4.935,4.935,0,0,0-6.979,0,.338.338,0,0,1-.478-.478,5.611,5.611,0,0,1,7.935,0,.338.338,0,0,1-.239.577Z" transform="translate(-464.772 -308.763)" fill="#326996"/></g><g transform="translate(7.087)"><path d="M472.566,306.692a.339.339,0,0,1-.239-.1,4.935,4.935,0,0,0-6.979,0,.338.338,0,0,1-.478-.478,5.611,5.611,0,0,1,7.935,0,.338.338,0,0,1-.239.577Z" transform="translate(-464.772 -304.472)" fill="#326996"/></g><g transform="translate(7.827 25.863)"><path d="M473.594,386.727a1.146,1.146,0,0,0-1.775-.555l-1.381,1.036-1.381-1.036a1.146,1.146,0,0,0-1.775.555h0a3.5,3.5,0,0,0,0,2.214h0a1.146,1.146,0,0,0,1.775.555l1.381-1.036,1.381,1.036a1.146,1.146,0,0,0,1.775-.555,3.5,3.5,0,0,0,0-2.214Z" transform="translate(-467.103 -385.943)" fill="#326996"/></g></g></g></svg>