<svg xmlns="http://www.w3.org/2000/svg" width="40" height="40" viewBox="0 0 40 40"><g transform="translate(0 0)"><circle cx="20" cy="20" r="20" fill="#ddeaf2"/></g><g transform="translate(5.839 3.552)"><g transform="translate(3.157)"><path d="M460.832,167.616a7.108,7.108,0,0,0-9.913,10.187l.848-.848a11.962,11.962,0,0,1,16.918,0l.3.3a6.335,6.335,0,0,0-8.154-9.64Z" transform="translate(-448.836 -165.666)" fill="#326996"/></g><g transform="translate(0 26.297)"><path d="M454.741,244.59a19.938,19.938,0,0,0,14.161-5.877,5.164,5.164,0,0,0-5.084-4.275H445.665a5.164,5.164,0,0,0-5.085,4.275A19.938,19.938,0,0,0,454.741,244.59Z" transform="translate(-440.58 -234.438)" fill="#326996"/></g><g transform="translate(8.931 26.297)"><path d="M463.937,235.843a5.239,5.239,0,1,0,10.478,0v-1.4H463.937Z" transform="translate(-463.937 -234.438)" fill="#fbc366"/></g><g transform="translate(10.589 15.769)"><path d="M471.854,206.9a3.582,3.582,0,0,0-3.582,3.582V218.6a3.581,3.581,0,1,0,7.162,0v-8.113A3.581,3.581,0,0,0,471.854,206.9Z" transform="translate(-468.272 -206.905)" fill="#ff9a89"/></g><g transform="translate(4.611 3.449)"><path d="M471.137,179.649a5.274,5.274,0,0,0-5.264-4.962h-7.367a5.274,5.274,0,0,0-5.264,4.962l-.59,9.967a6.111,6.111,0,0,0,4.2,6.17l3.246,1.061a6.727,6.727,0,0,0,4.18,0l3.246-1.061a6.111,6.111,0,0,0,4.2-6.17Z" transform="translate(-452.64 -174.687)" fill="#ff9a89"/></g><g transform="translate(3.245 12.815)"><path d="M449.106,201.46l.3,1.434a1.9,1.9,0,0,0,1.859,1.514h1.49v-5.229h-1.786A1.9,1.9,0,0,0,449.106,201.46Z" transform="translate(-449.066 -199.179)" fill="#ff9a89"/></g><g transform="translate(21.338 12.815)"><path d="M498.17,199.179h-1.786v5.229h1.49a1.9,1.9,0,0,0,1.858-1.514l.3-1.434A1.9,1.9,0,0,0,498.17,199.179Z" transform="translate(-496.384 -199.179)" fill="#ff9a89"/></g><g transform="translate(9.492 12.826)"><g transform="translate(8.203)"><path d="M487.424,200.342a.567.567,0,1,1,.567-.567A.568.568,0,0,1,487.424,200.342Zm0-.814a.247.247,0,1,0,.247.247A.248.248,0,0,0,487.424,199.528Z" transform="translate(-486.857 -199.208)" fill="#326996"/></g><path d="M465.97,200.342a.567.567,0,1,1,.567-.567A.567.567,0,0,1,465.97,200.342Zm0-.814a.247.247,0,1,0,.247.247A.248.248,0,0,0,465.97,199.528Z" transform="translate(-465.403 -199.208)" fill="#326996"/></g><g transform="translate(9.985 18.864)"><path d="M468.761,217.067H473A2.067,2.067,0,0,0,475.063,215h-8.369A2.067,2.067,0,0,0,468.761,217.067Z" transform="translate(-466.694 -215)" fill="#fefefe"/></g><g transform="translate(3.987 11.492)"><g transform="translate(2.588)"><path d="M462.138,200.513h-1.759a2.137,2.137,0,0,1-2.089-1.653l-.5-2.138a.407.407,0,0,1,.266-.479,10.127,10.127,0,0,1,6.412,0,.407.407,0,0,1,.267.479l-.5,2.139A2.138,2.138,0,0,1,462.138,200.513Zm-3.473-3.61.418,1.77a1.326,1.326,0,0,0,1.3,1.026h1.759a1.326,1.326,0,0,0,1.3-1.026l.418-1.77A9.312,9.312,0,0,0,458.665,196.9Z" transform="translate(-457.775 -195.721)" fill="#326996"/><g transform="translate(8.203 0)"><path d="M483.592,200.513h-1.759a2.138,2.138,0,0,1-2.089-1.653l-.5-2.139a.407.407,0,0,1,.267-.479,10.131,10.131,0,0,1,6.412,0,.407.407,0,0,1,.267.479l-.5,2.139A2.138,2.138,0,0,1,483.592,200.513Zm-3.473-3.61.418,1.77a1.327,1.327,0,0,0,1.3,1.026h1.759a1.326,1.326,0,0,0,1.3-1.026l.418-1.77A9.317,9.317,0,0,0,480.119,196.9Z" transform="translate(-479.229 -195.721)" fill="#326996"/></g><g transform="translate(6.075 1.154)"><path d="M476.276,199.552h-2.205a.407.407,0,1,1,0-.814h2.205a.407.407,0,1,1,0,.814Z" transform="translate(-473.664 -198.738)" fill="#326996"/></g></g><g transform="translate(0 0.53)"><path d="M454,197.922h-2.589a.407.407,0,0,1,0-.814H454a.407.407,0,0,1,0,.814Z" transform="translate(-451.006 -197.108)" fill="#326996"/></g><g transform="translate(16.944 0.53)"><path d="M498.315,197.922h-2.588a.407.407,0,1,1,0-.814h2.588a.407.407,0,1,1,0,.814Z" transform="translate(-495.32 -197.108)" fill="#326996"/></g></g><g transform="translate(7.615 1.855)"><g transform="translate(0 0.413)"><path d="M461.6,172.7a3.771,3.771,0,0,0,0,5.332l5.332-5.332A3.771,3.771,0,0,0,461.6,172.7Z" transform="translate(-460.495 -171.596)" fill="#326996"/></g><g transform="translate(5.594)"><path d="M475.126,171.984l7.08,7.08a5.007,5.007,0,0,0-7.08-7.08Z" transform="translate(-475.126 -170.517)" fill="#326996"/></g></g><g transform="translate(11.375 3.226)"><path d="M471.028,179.217a.408.408,0,0,1-.371-.238,3.657,3.657,0,0,1,1.809-4.838.407.407,0,1,1,.338.74,2.842,2.842,0,0,0-1.405,3.76.407.407,0,0,1-.37.576Z" transform="translate(-470.329 -174.103)" fill="#326996"/></g><g transform="translate(20.398 4.047)"><path d="M495.94,181.362a.4.4,0,0,1-.168-.037.406.406,0,0,1-.2-.539,2.842,2.842,0,0,0-1.405-3.76.407.407,0,1,1,.338-.741,3.657,3.657,0,0,1,1.808,4.839A.408.408,0,0,1,495.94,181.362Z" transform="translate(-493.926 -176.249)" fill="#326996"/></g></g></svg>