<svg xmlns="http://www.w3.org/2000/svg" xmlns:xlink="http://www.w3.org/1999/xlink" width="40" height="40" viewBox="0 0 40 40"><defs><clipPath id="a"><rect width="40" height="40" fill="none"/></clipPath></defs><g clip-path="url(#a)"><g transform="translate(0 0)"><circle cx="20" cy="20" r="20" fill="#326996"/></g><g transform="translate(9.246 2.15)"><path d="M201.853,27.623a11.229,11.229,0,0,0-11.229,11.229V61.772h8.9a13.555,13.555,0,0,0,13.555-13.555V38.852A11.229,11.229,0,0,0,201.853,27.623Z" transform="translate(-190.624 -27.623)" fill="#fbc366"/></g><g transform="translate(6.022 29.738)"><path d="M205.55,104.207l-11.531-4.435-11.531,4.435c-.1.039-.2.081-.295.127a19.983,19.983,0,0,0,25.632,1.95A4.229,4.229,0,0,0,205.55,104.207Z" transform="translate(-182.193 -99.772)" fill="#ddeaf2"/></g><g transform="translate(12.505 29.738)"><path d="M204.491,99.772l-5.343,2.055,4.784,8.02q.52.071,1.05.114l4.852-8.133Z" transform="translate(-199.148 -99.772)" fill="#ff9a89"/></g><g transform="translate(15.201 23.049)"><path d="M208.846,82.279a2.648,2.648,0,0,0-2.648,2.648v7.737a2.647,2.647,0,1,0,5.295,0V84.927A2.647,2.647,0,0,0,208.846,82.279Z" transform="translate(-206.198 -82.279)" fill="#ff9a89"/></g><g transform="translate(11.595 5.427)"><path d="M205.651,36.193a8.876,8.876,0,0,0-8.876,8.859l-.008,4.184c-.016,5.043,5.658,10.264,12.719,10.264,3.253-1.576,4.785-3.625,5.041-8.364.047-.877,0-3.364,0-6.063A8.877,8.877,0,0,0,205.651,36.193Z" transform="translate(-196.767 -36.193)" fill="#ff9a89"/></g><g transform="translate(8.522 16.279)"><path d="M191.671,64.574a3,3,0,0,0,0,6h2.941v-3A2.973,2.973,0,0,0,191.671,64.574Z" transform="translate(-188.731 -64.574)" fill="#ff9a89"/></g><g transform="translate(19.439 21.938)"><path d="M221.2,82.475a4.016,4.016,0,0,0,3.876-3.1h-7.8A4.013,4.013,0,0,0,221.2,82.475Z" transform="translate(-217.28 -79.374)" fill="#fefefe"/></g><g transform="translate(10.236 20.306)"><path d="M194.44,77.558a1.227,1.227,0,1,1,1.227-1.227A1.228,1.228,0,0,1,194.44,77.558Zm0-1.674a.447.447,0,1,0,.448.448A.448.448,0,0,0,194.44,75.883Z" transform="translate(-193.213 -75.104)" fill="#fefefe"/></g><g transform="translate(9.246 2.15)"><path d="M201.853,27.623a11.229,11.229,0,0,0-11.229,11.229v2.9h6.591a8.58,8.58,0,0,0,8.283-6.362,8.583,8.583,0,0,0,7.584,6.332v-2.87A11.229,11.229,0,0,0,201.853,27.623Z" transform="translate(-190.624 -27.623)" fill="#fbc366"/></g><g transform="translate(24.684 15.881)"><path d="M231.405,64.778a.407.407,0,0,1-.281-.7,1.958,1.958,0,0,1,2.708,0,.407.407,0,0,1-.562.589,1.145,1.145,0,0,0-1.584,0A.406.406,0,0,1,231.405,64.778Z" transform="translate(-230.998 -63.534)" fill="#326996"/></g><g transform="translate(17.441 15.881)"><path d="M212.463,64.778a.407.407,0,0,1-.281-.7,1.958,1.958,0,0,1,2.708,0,.407.407,0,0,1-.562.589,1.145,1.145,0,0,0-1.584,0A.406.406,0,0,1,212.463,64.778Z" transform="translate(-212.056 -63.534)" fill="#326996"/></g></g></svg>