<svg xmlns="http://www.w3.org/2000/svg" width="25" height="22.5" viewBox="0 0 25 22.5"><g transform="translate(-12.5 -15)"><path d="M21.25,27.5A6.25,6.25,0,1,0,15,21.25,6.257,6.257,0,0,0,21.25,27.5Zm0-10a3.75,3.75,0,1,1-3.75,3.75A3.755,3.755,0,0,1,21.25,17.5Z" fill="#fff"/><path d="M25.75,28.75h-9A4.254,4.254,0,0,0,12.5,33v3.25a1.25,1.25,0,0,0,2.5,0V33a1.752,1.752,0,0,1,1.75-1.75h9A1.752,1.752,0,0,1,27.5,33v3.25a1.25,1.25,0,0,0,2.5,0V33A4.254,4.254,0,0,0,25.75,28.75Z" fill="#fff"/><path d="M28.75,17.5a3.75,3.75,0,0,1,0,7.5,1.25,1.25,0,0,0,0,2.5,6.25,6.25,0,0,0,0-12.5,1.25,1.25,0,0,0,0,2.5Z" fill="#fff"/><path d="M33.25,28.75a1.25,1.25,0,0,0,0,2.5A1.752,1.752,0,0,1,35,33v3.25a1.25,1.25,0,0,0,2.5,0V33A4.254,4.254,0,0,0,33.25,28.75Z" fill="#fff"/></g></svg>