<svg xmlns="http://www.w3.org/2000/svg" width="40" height="40" viewBox="0 0 40 40"><circle cx="20" cy="20" r="20" transform="translate(0 0)" fill="#b1142c"/><path d="M470.2,112.074a6.5,6.5,0,0,0-2.833-1.456,41.956,41.956,0,0,0-18.419,0,6.5,6.5,0,0,0-2.824,1.448,20,20,0,0,0,24.076.007Z" transform="translate(-438.163 -76.1)" fill="#96cedd"/><path d="M463.643,109.94a5.367,5.367,0,0,0,10.666,0,41.4,41.4,0,0,0-10.666,0Z" transform="translate(-448.985 -76.101)" fill="#ff9a89"/><path d="M472.816,86.945a2.972,2.972,0,0,0-2.972,2.972v6.731a2.971,2.971,0,1,0,5.942,0V89.917A2.971,2.971,0,0,0,472.816,86.945Z" transform="translate(-452.815 -62.112)" fill="#ff9a89"/><path d="M467.081,50.592h0V45.536c-.1-4.044-4.269-7.965-9.244-7.965s-9.14,3.921-9.244,7.965v5.056h-.019a2.981,2.981,0,1,0,0,5.962,2.948,2.948,0,0,0,.746-.106A8.64,8.64,0,0,0,451.96,61.3l.424.387a8,8,0,0,0,10.9,0l.424-.387a8.637,8.637,0,0,0,2.642-4.846,2.952,2.952,0,0,0,.728.1,2.981,2.981,0,1,0,0-5.962Z" transform="translate(-437.835 -31.617)" fill="#ff9a89"/><path d="M463.81,32.832l-4.616-.753A3.872,3.872,0,0,0,454.7,35.9a2.586,2.586,0,0,0-2.581,2.738l.5,8.529a1.329,1.329,0,0,0,1.315-1.133l1-6.676L461.3,41.5a15.52,15.52,0,0,0,7.9.53l.6,4a1.33,1.33,0,0,0,1.315,1.133h0l.286-4.863A9.058,9.058,0,0,0,463.81,32.832Z" transform="translate(-441.864 -28.194)" fill="#2d2d48"/><path d="M472.516,91.138A3.14,3.14,0,0,0,475.657,88h-6.284A3.143,3.143,0,0,0,472.516,91.138Z" transform="translate(-452.524 -62.761)" fill="#fff"/><path d="M487.984,71.029a.16.16,0,1,0,.16.16A.16.16,0,0,0,487.984,71.029Z" transform="translate(-463.92 -52.282)" fill="none" stroke="#2d2d48" stroke-linecap="round" stroke-linejoin="round" stroke-width="2.128"/><path d="M466.529,71.029a.16.16,0,1,0,.16.16A.16.16,0,0,0,466.529,71.029Z" transform="translate(-450.669 -52.282)" fill="none" stroke="#2d2d48" stroke-linecap="round" stroke-linejoin="round" stroke-width="2.128"/><path d="M480.773,71.742V67.883a1.643,1.643,0,0,1,1.932-1.618l2.128.379" transform="translate(-459.565 -49.323)" fill="none" stroke="#2d2d48" stroke-linecap="round" stroke-linejoin="round" stroke-width="2.128"/><path d="M467.668,67.883a1.643,1.643,0,0,0-1.932-1.618l-2.128.379" transform="translate(-448.964 -49.323)" fill="none" stroke="#2d2d48" stroke-linecap="round" stroke-linejoin="round" stroke-width="2.128"/></svg>