<svg xmlns="http://www.w3.org/2000/svg" width="40" height="40" viewBox="0 0 40 40"><g transform="translate(-260 -20)"><circle cx="20" cy="20" r="20" transform="translate(260 20)" fill="#b1142c" opacity="0.05"/><g transform="translate(254.5 -0.501)"><path d="M24.5,50.5a1,1,0,0,1-.99-1.142l.837-5.858H16.5a1,1,0,0,1-.74-1.673l9.993-11a1,1,0,0,1,1.73.814L26.651,37.5H34.5a1,1,0,0,1,.74,1.673l-10,11A1,1,0,0,1,24.5,50.5Zm-5.741-9H25.5a1,1,0,0,1,.99,1.142l-.539,3.776L32.239,39.5H25.5a1,1,0,0,1-.99-1.141l.536-3.779Z" fill="#b1142c"/></g></g></svg>