<svg xmlns="http://www.w3.org/2000/svg" xmlns:xlink="http://www.w3.org/1999/xlink" width="98" height="98" viewBox="0 0 98 98"><defs><filter id="a" x="0" y="0" width="98" height="98" filterUnits="userSpaceOnUse"><feOffset dy="3" input="SourceAlpha"/><feGaussianBlur stdDeviation="3" result="b"/><feFlood flood-opacity="0.161"/><feComposite operator="in" in2="b"/><feComposite in="SourceGraphic"/></filter></defs><g transform="translate(-351 -645)"><g transform="matrix(1, 0, 0, 1, 351, 645)" filter="url(#a)"><circle cx="40" cy="40" r="40" transform="translate(9 6)" fill="#fff"/></g><g transform="translate(380 671)"><path d="M33.5,70.5a2,2,0,0,1-1.979-2.283L33.194,56.5H17.5a2,2,0,0,1-1.48-3.346l19.985-22a2,2,0,0,1,3.461,1.627L37.8,44.5H53.5a2,2,0,0,1,1.48,3.346l-20,22A2,2,0,0,1,33.5,70.5Zm-11.481-18H35.5a2,2,0,0,1,1.979,2.283L36.4,62.334,48.978,48.5H35.5a2,2,0,0,1-1.979-2.282l1.072-7.558Z" transform="translate(-15.5 -30.501)" fill="#b1142c"/></g></g></svg>