<svg xmlns="http://www.w3.org/2000/svg" width="15" height="12.75" viewBox="0 0 15 12.75"><g transform="translate(-1575 -181)"><path d="M31.556,17.5H18.443a.942.942,0,1,0,0,1.883H31.556a.942.942,0,1,0,0-1.883Z" transform="translate(1557.5 163.5)" fill="#2d2d48"/><path d="M26.559,22.917H18.441a.942.942,0,0,0,0,1.884h8.118a.942.942,0,0,0,0-1.884Z" transform="translate(1557.5 163.516)" fill="#2d2d48"/><path d="M24.059,28.335H18.441a.942.942,0,0,0,0,1.883h5.618a.942.942,0,0,0,0-1.883Z" transform="translate(1557.5 163.532)" fill="#2d2d48"/></g></svg>