<svg xmlns="http://www.w3.org/2000/svg" xmlns:xlink="http://www.w3.org/1999/xlink" width="98" height="98" viewBox="0 0 98 98"><defs><filter id="a" x="0" y="0" width="98" height="98" filterUnits="userSpaceOnUse"><feOffset dy="3" input="SourceAlpha"/><feGaussianBlur stdDeviation="3" result="b"/><feFlood flood-opacity="0.161"/><feComposite operator="in" in2="b"/><feComposite in="SourceGraphic"/></filter></defs><g transform="translate(-351 -417)"><g transform="matrix(1, 0, 0, 1, 351, 417)" filter="url(#a)"><circle cx="40" cy="40" r="40" transform="translate(9 6)" fill="#fff"/></g><path d="M47.7,12.5H17.3a4.8,4.8,0,0,0-4.8,4.8V47.7a4.8,4.8,0,0,0,4.8,4.8H47.7a4.8,4.8,0,0,0,4.8-4.8V17.3A4.8,4.8,0,0,0,47.7,12.5Zm-30.4,36a.8.8,0,0,1-.8-.8V30.5h10v18Zm31.2-.8a.8.8,0,0,1-.8.8H30.5v-18h18Zm-32-21.2V17.3a.8.8,0,0,1,.8-.8H47.7a.8.8,0,0,1,.8.8v9.2Z" transform="translate(367.5 430.5)" fill="#b1142c"/></g></svg>