<svg xmlns="http://www.w3.org/2000/svg" xmlns:xlink="http://www.w3.org/1999/xlink" width="98" height="98" viewBox="0 0 98 98"><defs><filter id="a" x="0" y="0" width="98" height="98" filterUnits="userSpaceOnUse"><feOffset dy="3" input="SourceAlpha"/><feGaussianBlur stdDeviation="3" result="b"/><feFlood flood-opacity="0.161"/><feComposite operator="in" in2="b"/><feComposite in="SourceGraphic"/></filter></defs><g transform="translate(-351 -541)"><g transform="matrix(1, 0, 0, 1, 351, 541)" filter="url(#a)"><circle cx="40" cy="40" r="40" transform="translate(9 6)" fill="#fff"/></g><path d="M39.7,16.5H36.5v-2a2,2,0,1,0-4,0v2h-8v-2a2,2,0,1,0-4,0v2H17.3a4.8,4.8,0,0,0-4.8,4.8V47.7a4.8,4.8,0,0,0,4.8,4.8H39.7a4.8,4.8,0,0,0,4.8-4.8V21.3A4.8,4.8,0,0,0,39.7,16.5Zm.8,31.2a.8.8,0,0,1-.8.8H17.3a.8.8,0,0,1-.8-.8V21.3a.8.8,0,0,1,.8-.8h3.2v2a2,2,0,1,0,4,0v-2h8v2a2,2,0,1,0,4,0v-2h3.2a.8.8,0,0,1,.8.8Z" transform="translate(371.5 554.5)" fill="#b1142c"/><path d="M31.494,22.5H19.5a2,2,0,0,0,0,4H31.494a2,2,0,1,0,0-4Z" transform="translate(374.5 560.5)" fill="#b1142c"/><path d="M27.5,27.5h-8a2,2,0,1,0,0,4h8a2,2,0,1,0,0-4Z" transform="translate(374.5 563.5)" fill="#b1142c"/></g></svg>