<svg xmlns="http://www.w3.org/2000/svg" width="40" height="40" viewBox="0 0 40 40"><g transform="translate(-260 -20)"><path d="M20,0A20,20,0,1,1,0,20,20,20,0,0,1,20,0Z" transform="translate(260 20)" fill="#b1142c" opacity="0.05"/><g transform="translate(259.5 17.5)"><path d="M26.1,14.5H24.5v-1a1,1,0,0,0-2,0v1h-4v-1a1,1,0,0,0-2,0v1H14.9a2.4,2.4,0,0,0-2.4,2.4V30.1a2.4,2.4,0,0,0,2.4,2.4H26.1a2.4,2.4,0,0,0,2.4-2.4V16.9A2.4,2.4,0,0,0,26.1,14.5Zm.4,15.6a.4.4,0,0,1-.4.4H14.9a.4.4,0,0,1-.4-.4V16.9a.4.4,0,0,1,.4-.4h1.6v1a1,1,0,0,0,2,0v-1h4v1a1,1,0,0,0,2,0v-1h1.6a.4.4,0,0,1,.4.4Z" fill="#b1142c"/><path d="M24.5,22.5h-6a1,1,0,0,0,0,2h6a1,1,0,1,0,0-2Z" transform="translate(-1 -2)" fill="#b1142c"/><path d="M22.5,27.5h-4a1,1,0,0,0,0,2h4a1,1,0,0,0,0-2Z" transform="translate(-1 -3)" fill="#b1142c"/></g></g></svg>