<svg xmlns="http://www.w3.org/2000/svg" width="25" height="25.002" viewBox="0 0 25 25.002"><path d="M21.251,35h-4.5A1.752,1.752,0,0,1,15,33.251V16.75A1.752,1.752,0,0,1,16.75,15h4.5a1.25,1.25,0,1,0,0-2.5h-4.5a4.255,4.255,0,0,0-4.25,4.25v16.5a4.255,4.255,0,0,0,4.25,4.25h4.5a1.25,1.25,0,1,0,0-2.5Z" transform="translate(-12.5 -12.5)" fill="#fff"/><path d="M37.405,25.478a1.251,1.251,0,0,0-.271-1.362l-6.249-6.25a1.25,1.25,0,1,0-1.768,1.768l4.116,4.116H21.25a1.25,1.25,0,0,0,0,2.5H33.233l-4.116,4.116a1.25,1.25,0,0,0,1.768,1.768l6.249-6.25A1.246,1.246,0,0,0,37.405,25.478Z" transform="translate(-12.5 -12.5)" fill="#fff"/></svg>