<svg xmlns="http://www.w3.org/2000/svg" width="25" height="25" viewBox="0 0 25 25"><g transform="translate(-1539 -183)"><g transform="translate(1539 183)"><path d="M26.874,12.505l-2.024-.4a.6.6,0,0,1-.473-.421,5.446,5.446,0,0,0-.394-.9.608.608,0,0,1,.053-.632l1.157-1.712a.639.639,0,0,0-.079-.817l-2.76-2.766a.636.636,0,0,0-.815-.079L19.829,5.946A.675.675,0,0,1,19.2,6c-.289-.132-.6-.263-.894-.369a.69.69,0,0,1-.421-.474l-.394-2.028a.625.625,0,0,0-.631-.527H12.942a.645.645,0,0,0-.631.527l-.394,2.028a.643.643,0,0,1-.421.474A9.07,9.07,0,0,0,10.6,6a.6.6,0,0,1-.631-.053L8.262,4.787a.636.636,0,0,0-.815.079L4.687,7.632a.674.674,0,0,0-.079.817l1.157,1.712a.673.673,0,0,1,.053.632c-.131.29-.263.606-.394.9a.69.69,0,0,1-.473.421l-2.024.4a.65.65,0,0,0-.526.632v3.925a.625.625,0,0,0,.526.632l2.024.4a.6.6,0,0,1,.473.421,5.446,5.446,0,0,0,.394.9.608.608,0,0,1-.053.632L4.608,21.752a.639.639,0,0,0,.079.817l2.76,2.766a.636.636,0,0,0,.815.079l1.709-1.159A.675.675,0,0,1,10.6,24.2c.289.132.6.263.894.369a.69.69,0,0,1,.421.474l.394,2.028a.625.625,0,0,0,.631.527h3.917a.645.645,0,0,0,.631-.527l.394-2.028a.643.643,0,0,1,.421-.474A9.069,9.069,0,0,0,19.2,24.2a.6.6,0,0,1,.631.053l1.709,1.159a.636.636,0,0,0,.815-.079l2.76-2.766a.674.674,0,0,0,.079-.817l-1.157-1.712a.673.673,0,0,1-.053-.632c.131-.29.263-.606.394-.9a.69.69,0,0,1,.473-.421l2.024-.4a.65.65,0,0,0,.526-.632V13.137A.625.625,0,0,0,26.874,12.505ZM14.913,21.383a6.283,6.283,0,1,1,6.283-6.3A6.289,6.289,0,0,1,14.913,21.383Z" transform="translate(-2.4 -2.6)" fill="#2d2d48"/></g></g></svg>