<svg xmlns="http://www.w3.org/2000/svg" width="40" height="40" viewBox="0 0 40 40"><g transform="translate(-260 -20)"><path d="M20,0A20,20,0,1,1,0,20,20,20,0,0,1,20,0Z" transform="translate(260 20)" fill="#b1142c" opacity="0.05"/><g transform="translate(2 -152)"><g transform="translate(268 182)"><path d="M22.5-37.5a10,10,0,0,0-10,10,10,10,0,0,0,10,10,10,10,0,0,0,10-10A10,10,0,0,0,22.5-37.5Zm0,18a8.009,8.009,0,0,1-8-8,8.009,8.009,0,0,1,8-8,8.009,8.009,0,0,1,8,8A8.009,8.009,0,0,1,22.5-19.5Z" transform="translate(-12.5 37.5)" fill="#b1142c"/><path d="M29.2-25.394,25.75-27.118V-31.5a1,1,0,0,0-1-1,1,1,0,0,0-1,1v5a.925.925,0,0,0,.029.142,1.016,1.016,0,0,0,.042.209.955.955,0,0,0,.094.167.979.979,0,0,0,.106.157.972.972,0,0,0,.169.131.942.942,0,0,0,.114.089l4,2a.994.994,0,0,0,.446.106,1,1,0,0,0,.9-.553A1,1,0,0,0,29.2-25.394Z" transform="translate(-14.75 36.5)" fill="#b1142c"/></g></g></g></svg>