<svg xmlns="http://www.w3.org/2000/svg" xmlns:xlink="http://www.w3.org/1999/xlink" width="98" height="98" viewBox="0 0 98 98"><defs><filter id="a" x="0" y="0" width="98" height="98" filterUnits="userSpaceOnUse"><feOffset dy="3" input="SourceAlpha"/><feGaussianBlur stdDeviation="3" result="b"/><feFlood flood-opacity="0.161"/><feComposite operator="in" in2="b"/><feComposite in="SourceGraphic"/></filter></defs><g transform="translate(-142 -564)"><g transform="matrix(1, 0, 0, 1, 142, 564)" filter="url(#a)"><circle cx="40" cy="40" r="40" transform="translate(9 6)" fill="#fff"/></g><g transform="translate(131 24)"><g transform="translate(40 568)"><path d="M25,35A10,10,0,1,0,15,25,10.012,10.012,0,0,0,25,35Zm0-16a6,6,0,1,1-6,6A6.008,6.008,0,0,1,25,19Z" transform="translate(-11 -15)" fill="#b1142c"/><path d="M33.7,28.75H19.3a6.807,6.807,0,0,0-6.8,6.8v5.2a2,2,0,0,0,4,0v-5.2a2.8,2.8,0,0,1,2.8-2.8H33.7a2.8,2.8,0,0,1,2.8,2.8v5.2a2,2,0,0,0,4,0v-5.2A6.807,6.807,0,0,0,33.7,28.75Z" transform="translate(-12.5 -6.75)" fill="#b1142c"/><path d="M29.5,19a6,6,0,0,1,0,12,2,2,0,0,0,0,4,10,10,0,0,0,0-20,2,2,0,0,0,0,4Z" transform="translate(-3.5 -15)" fill="#b1142c"/><path d="M34,28.75a2,2,0,0,0,0,4,2.8,2.8,0,0,1,2.8,2.8v5.2a2,2,0,0,0,4,0v-5.2A6.807,6.807,0,0,0,34,28.75Z" transform="translate(-0.8 -6.75)" fill="#b1142c"/></g></g></g></svg>